<svg width="2071" height="463" viewBox="0 0 2071 463" fill="none" xmlns="http://www.w3.org/2000/svg">
<path d="M272.602 434.084C272.602 437.014 272.195 439.618 271.381 441.896C270.567 444.012 269.59 445.965 268.451 447.756C267.312 449.546 266.01 451.337 264.545 453.127C263.243 454.917 262.022 457.033 260.883 459.475L257.465 458.986C254.21 458.986 250.954 459.23 247.699 459.719C244.444 460.207 241.189 460.451 237.934 460.451C235.004 460.451 232.237 459.963 229.633 458.986C227.191 458.01 225.32 455.975 224.018 452.883C221.739 451.581 219.46 450.604 217.182 449.953C214.903 449.465 212.868 448.326 211.078 446.535V444.094C211.078 441.815 210.346 439.781 208.881 437.99C207.416 436.2 206.439 434.165 205.951 431.887C204.975 427.492 204.568 422.935 204.73 418.215C204.893 413.332 204.975 408.612 204.975 404.055C204.975 399.986 204.568 395.998 203.754 392.092C202.94 388.186 202.045 384.361 201.068 380.617C200.092 376.711 199.197 372.886 198.383 369.143C197.732 365.236 197.569 361.33 197.895 357.424C190.896 356.61 183.979 355.959 177.143 355.471C170.469 354.82 163.552 354.494 156.391 354.494C150.368 354.494 144.265 354.82 138.08 355.471C132.058 355.959 126.199 357.342 120.502 359.621C117.41 357.831 114.073 356.529 110.492 355.715C107.074 354.901 103.575 354.494 99.9941 354.494C96.2507 354.494 92.9141 354.982 89.9844 355.959C88.6823 359.214 88.0312 362.469 88.0312 365.725C88.0312 368.98 87.543 372.235 86.5664 375.49C86.2409 376.955 85.6712 378.013 84.8574 378.664C84.2064 379.152 83.7181 379.803 83.3926 380.617C83.0671 381.431 82.9857 382.326 83.1484 383.303C83.3112 384.117 83.3926 385.012 83.3926 385.988C83.3926 386.965 82.6602 388.511 81.1953 390.627C79.8932 392.743 78.998 394.696 78.5098 396.486C77.696 400.718 77.2077 405.275 77.0449 410.158C77.0449 414.878 77.0449 419.517 77.0449 424.074C77.0449 425.051 77.3704 425.946 78.0215 426.76C78.6725 427.411 78.998 428.143 78.998 428.957C78.998 429.771 77.7773 431.968 75.3359 435.549C72.8945 438.967 70.1276 442.71 67.0352 446.779C64.1055 450.686 61.3385 454.185 58.7344 457.277C56.1302 460.533 54.7467 462.242 54.584 462.404C53.4447 462.73 52.3867 462.893 51.4102 462.893C50.4336 462.893 49.457 462.893 48.4805 462.893C42.7839 462.893 37.25 461.509 31.8789 458.742C26.5078 456.138 21.7064 453.046 17.4746 449.465V446.047C17.4746 441.815 17.1491 437.583 16.498 433.352C15.847 428.957 15.0332 424.644 14.0566 420.412C16.3353 417.482 17.8001 414.471 18.4512 411.379C19.1022 408.286 19.265 405.031 18.9395 401.613C20.4043 399.986 21.625 398.684 22.6016 397.707C23.7409 396.73 24.6361 395.754 25.2871 394.777C25.9382 393.801 26.3451 392.661 26.5078 391.359C26.8333 390.057 26.9961 388.267 26.9961 385.988V385.012L30.4141 382.082C30.7396 380.292 30.7396 378.664 30.4141 377.199C30.0885 375.572 29.9258 373.863 29.9258 372.072C29.9258 370.77 30.0885 369.712 30.4141 368.898L33.5879 365.969C33.9134 364.992 33.9948 364.097 33.832 363.283C33.6693 362.307 33.5879 361.411 33.5879 360.598C33.5879 359.784 33.832 359.133 34.3203 358.645C34.8086 357.993 35.3783 357.342 36.0293 356.691C36.6803 356.04 37.25 355.389 37.7383 354.738C38.2266 354.087 38.4707 353.355 38.4707 352.541V351.564C31.7975 350.588 25.2871 350.588 18.9395 351.564C16.8236 350.1 14.6263 348.553 12.3477 346.926C10.2318 345.298 8.27865 343.589 6.48828 341.799C4.69792 340.008 3.23307 337.974 2.09375 335.695C0.954427 333.417 0.384766 330.812 0.384766 327.883C0.384766 322.512 1.44271 318.443 3.55859 315.676C5.67448 312.909 8.19727 310.63 11.127 308.84C14.2194 306.887 17.4746 305.096 20.8926 303.469C24.4733 301.841 27.6471 299.481 30.4141 296.389H43.1094C46.0391 293.459 48.5618 290.285 50.6777 286.867C52.9564 283.286 54.7467 279.462 56.0488 275.393C56.5371 273.928 56.7812 272.382 56.7812 270.754C56.7812 269.126 57.0254 267.58 57.5137 266.115C58.9785 262.86 60.9316 259.93 63.373 257.326C65.8145 254.559 67.6862 251.467 68.9883 248.049C69.8021 245.445 70.0462 242.759 69.7207 239.992C69.3952 237.225 69.6393 234.54 70.4531 231.936C71.918 227.541 73.5456 223.635 75.3359 220.217C77.1263 216.799 78.8353 213.381 80.4629 209.963C82.2533 206.382 83.7181 202.395 84.8574 198C85.9967 193.605 86.5664 188.234 86.5664 181.887C86.5664 180.91 86.3223 180.096 85.834 179.445C85.3457 178.794 85.1016 177.98 85.1016 177.004C85.1016 176.027 85.7526 174.562 87.0547 172.609C88.5195 170.656 89.4961 168.947 89.9844 167.482C90.4727 165.692 90.4727 163.983 89.9844 162.355C89.6589 160.565 89.4961 158.775 89.4961 156.984C89.4961 155.845 90.3913 153.322 92.1816 149.416C93.972 145.347 96.0879 141.115 98.5293 136.721C100.971 132.163 103.493 127.932 106.098 124.025C108.702 119.956 110.818 117.271 112.445 115.969C112.608 112.388 113.259 109.296 114.398 106.691C115.538 103.924 116.84 101.32 118.305 98.8789C119.77 96.4375 121.316 93.9961 122.943 91.5547C124.571 89.1133 125.954 86.4277 127.094 83.498C129.372 83.498 131 82.5215 131.977 80.5684C132.302 80.2428 132.79 80.0801 133.441 80.0801C136.046 80.0801 138.975 80.3242 142.23 80.8125C145.486 81.3008 149.229 81.5449 153.461 81.5449C157.204 81.5449 160.785 82.4401 164.203 84.2305C167.784 85.8581 171.039 87.8112 173.969 90.0898C176.736 92.2057 179.34 95.7865 181.781 100.832C184.385 105.878 186.827 111.737 189.105 118.41C191.384 124.921 193.5 131.919 195.453 139.406C197.569 146.893 199.522 154.217 201.312 161.379C203.103 168.378 204.812 174.888 206.439 180.91C208.067 186.77 209.613 191.49 211.078 195.07C211.892 197.349 212.95 199.465 214.252 201.418C215.554 203.208 216.612 205.406 217.426 208.01C217.914 210.288 218.077 212.648 217.914 215.09C217.751 217.531 218.077 219.973 218.891 222.414C219.542 224.53 220.355 226.402 221.332 228.029C222.309 229.657 223.204 231.447 224.018 233.4C225.32 238.446 226.133 243.654 226.459 249.025C226.785 254.234 228.005 259.198 230.121 263.918C234.353 273.521 237.771 283.286 240.375 293.215C243.142 303.143 244.525 313.234 244.525 323.488C244.525 325.767 245.176 328.127 246.479 330.568C246.479 331.87 246.885 333.254 247.699 334.719C248.513 336.184 249.408 337.73 250.385 339.357C251.524 340.822 252.582 342.287 253.559 343.752C254.698 345.217 255.512 346.6 256 347.902C256.326 348.879 256.977 351.564 257.953 355.959C258.93 360.191 259.988 365.318 261.127 371.34C262.429 377.362 263.731 383.872 265.033 390.871C266.335 397.707 267.556 404.217 268.695 410.402C269.835 416.424 270.73 421.633 271.381 426.027C272.195 430.422 272.602 433.107 272.602 434.084ZM183.49 301.516C183.327 298.26 182.758 295.087 181.781 291.994C180.805 288.902 179.665 285.891 178.363 282.961C177.224 279.868 176.003 276.776 174.701 273.684C173.562 270.428 172.667 267.173 172.016 263.918C171.527 260.5 171.365 256.838 171.527 252.932C171.853 249.025 171.527 245.201 170.551 241.457C170.062 239.504 169.493 238.12 168.842 237.307C168.354 236.493 167.865 235.76 167.377 235.109C167.051 234.296 166.726 233.319 166.4 232.18C166.075 230.878 165.912 228.843 165.912 226.076C165.912 224.611 165.505 223.228 164.691 221.926C164.04 220.624 163.308 219.322 162.494 218.02C161.68 216.717 160.867 215.171 160.053 213.381C159.402 211.59 159.076 209.475 159.076 207.033C159.076 205.568 159.32 204.104 159.809 202.639C160.297 201.011 160.704 199.465 161.029 198C157.937 195.233 155.333 192.141 153.217 188.723C151.264 185.305 148.985 182.049 146.381 178.957C145.242 179.608 144.509 180.666 144.184 182.131C143.858 183.596 143.695 185.223 143.695 187.014C143.695 188.641 143.695 190.35 143.695 192.141C143.695 193.931 143.451 195.396 142.963 196.535C142.475 198 141.498 199.139 140.033 199.953C138.731 200.604 137.592 201.581 136.615 202.883C135.801 204.185 135.15 205.65 134.662 207.277C134.337 208.905 133.441 210.126 131.977 210.939V225.588C128.233 229.982 125.141 235.109 122.699 240.969C120.421 246.828 118.467 252.932 116.84 259.279C115.375 265.627 114.154 272.056 113.178 278.566C112.364 284.914 111.632 290.855 110.98 296.389C111.469 296.714 112.038 296.958 112.689 297.121C113.34 297.121 113.91 297.121 114.398 297.121C117.165 297.121 119.851 296.796 122.455 296.145C125.059 295.331 127.745 294.924 130.512 294.924C137.51 294.924 144.346 295.412 151.02 296.389C152.81 296.714 154.356 297.365 155.658 298.342C157.123 299.156 158.751 299.562 160.541 299.562C161.355 299.562 162.006 299.318 162.494 298.83C163.145 298.342 164.122 298.098 165.424 298.098C168.028 298.098 170.469 298.83 172.748 300.295C175.027 301.76 177.468 302.492 180.072 302.492C181.049 302.492 182.188 302.167 183.49 301.516ZM375.385 46.3887C375.385 49.6439 374.652 52.7363 373.188 55.666C371.723 58.5957 370.746 61.5254 370.258 64.4551C367.816 65.7572 365.131 67.0592 362.201 68.3613C359.434 69.6634 357.318 71.6979 355.854 74.4648C355.04 74.1393 354.307 73.9766 353.656 73.9766C353.005 73.9766 352.273 73.9766 351.459 73.9766C347.878 73.9766 344.542 74.709 341.449 76.1738C338.357 77.4759 335.183 78.4525 331.928 79.1035C328.184 76.8249 324.115 75.0345 319.721 73.7324C315.489 72.2676 311.339 70.3958 307.27 68.1172C306.944 65.0247 306.374 62.3392 305.561 60.0605C304.747 57.7819 304.34 55.0964 304.34 52.0039C304.34 49.7253 303.363 47.6094 301.41 45.6562C299.457 43.5404 298.236 41.3431 297.748 39.0645C299.05 37.9251 300.027 36.5417 300.678 34.9141C301.492 33.2865 302.143 31.5775 302.631 29.7871C303.119 27.9967 303.445 26.2064 303.607 24.416C303.77 22.6257 304.014 20.998 304.34 19.5332C305.479 19.3704 306.374 18.9635 307.025 18.3125C307.839 17.4987 308.49 16.6035 308.979 15.627C309.467 14.4876 309.955 13.4297 310.443 12.4531C310.932 11.4766 311.583 10.6628 312.396 10.0117C314.838 9.36068 317.117 8.54688 319.232 7.57031C321.348 6.43099 323.383 5.37305 325.336 4.39648C327.452 3.41992 329.568 2.60612 331.684 1.95508C333.962 1.30404 336.485 0.978516 339.252 0.978516C341.368 0.978516 343.646 1.54818 346.088 2.6875C348.529 3.82682 350.889 5.29167 353.168 7.08203C355.447 8.70964 357.562 10.5 359.516 12.4531C361.469 14.4062 362.934 16.278 363.91 18.0684C364.724 19.0449 365.049 20.1029 364.887 21.2422C364.724 22.3815 364.887 23.4395 365.375 24.416C366.352 26.3691 367.41 28.1595 368.549 29.7871C369.688 31.4147 370.746 33.0423 371.723 34.6699C372.862 36.1348 373.757 37.8438 374.408 39.7969C375.059 41.5872 375.385 43.7845 375.385 46.3887ZM381.732 232.424C381.732 237.469 380.919 242.515 379.291 247.561C377.663 252.606 376.85 257.733 376.85 262.941C376.85 264.732 377.094 266.522 377.582 268.312C378.07 269.94 378.314 271.649 378.314 273.439C378.314 277.02 377.826 280.682 376.85 284.426C375.873 288.007 375.385 291.669 375.385 295.412C375.385 299.807 376.361 304.038 378.314 308.107C377.338 309.898 376.687 311.688 376.361 313.479C376.036 315.106 375.873 316.978 375.873 319.094C375.873 326.092 375.954 333.173 376.117 340.334C376.28 347.495 376.361 354.738 376.361 362.062C376.361 365.806 376.524 369.631 376.85 373.537C377.338 377.281 378.314 380.78 379.779 384.035C378.314 387.29 377.663 390.708 377.826 394.289C378.152 397.87 378.314 401.451 378.314 405.031C378.314 406.333 378.07 407.635 377.582 408.938C377.094 410.077 376.85 411.46 376.85 413.088C376.85 415.529 377.012 417.971 377.338 420.412C377.663 422.691 377.826 425.051 377.826 427.492C377.826 429.934 377.175 432.212 375.873 434.328C374.571 436.281 372.862 437.99 370.746 439.455C368.63 440.92 366.352 442.059 363.91 442.873C361.469 443.687 359.109 444.094 356.83 444.094C355.202 444.094 352.68 443.443 349.262 442.141C346.007 440.676 342.589 438.967 339.008 437.014C335.59 435.061 332.416 433.107 329.486 431.154C326.557 429.038 324.685 427.329 323.871 426.027C323.383 425.376 322.732 424.156 321.918 422.365C321.267 420.575 320.535 418.622 319.721 416.506C319.07 414.39 318.5 412.437 318.012 410.646C317.523 408.693 317.279 407.31 317.279 406.496C317.279 405.52 317.523 404.624 318.012 403.811C318.5 402.997 318.744 402.02 318.744 400.881C318.744 398.602 318.174 396.486 317.035 394.533C315.896 392.58 315.326 390.708 315.326 388.918C315.326 387.128 315.652 385.5 316.303 384.035C316.954 382.408 317.279 380.699 317.279 378.908C317.279 377.443 316.954 376.06 316.303 374.758C315.652 373.456 315.326 371.91 315.326 370.119C315.326 367.027 315.733 363.934 316.547 360.842C317.523 357.587 318.5 354.331 319.477 351.076C320.616 347.821 321.592 344.566 322.406 341.311C323.383 337.893 323.871 334.475 323.871 331.057C323.871 327.313 323.708 323.488 323.383 319.582C323.22 315.676 322.732 311.851 321.918 308.107C321.592 305.829 320.941 303.713 319.965 301.76C319.151 299.807 318.744 297.528 318.744 294.924C318.744 292.645 318.988 290.448 319.477 288.332C320.128 286.053 320.453 283.775 320.453 281.496C320.453 277.753 319.395 274.253 317.279 270.998C319.395 267.743 320.779 264.081 321.43 260.012C322.081 255.78 322.406 251.792 322.406 248.049C322.406 243.492 321.918 238.527 320.941 233.156C319.965 227.785 318.093 223.228 315.326 219.484C316.628 214.439 317.035 209.475 316.547 204.592C316.059 199.546 315.814 194.501 315.814 189.455C315.814 186.2 316.303 182.701 317.279 178.957C316.465 176.678 315.163 174.644 313.373 172.854C311.745 171.063 310.932 168.785 310.932 166.018C310.932 165.529 311.176 164.634 311.664 163.332C312.152 162.03 312.722 160.484 313.373 158.693C314.024 156.903 314.594 155.031 315.082 153.078C315.57 151.125 315.814 149.253 315.814 147.463C315.814 144.533 315.245 141.766 314.105 139.162C312.966 136.558 312.396 133.872 312.396 131.105C312.396 126.548 313.21 122.479 314.838 118.898C316.465 115.318 318.337 111.656 320.453 107.912C327.615 104.331 335.102 102.541 342.914 102.541C345.681 102.541 348.367 102.785 350.971 103.273C353.738 103.599 356.505 104.169 359.271 104.982C359.923 105.471 361.306 107.342 363.422 110.598C365.538 113.853 367.654 117.434 369.77 121.34C372.048 125.246 374.001 128.908 375.629 132.326C377.419 135.744 378.314 137.779 378.314 138.43C378.314 142.661 378.07 146.893 377.582 151.125C377.094 155.194 376.85 159.344 376.85 163.576C376.85 166.994 376.28 170.331 375.141 173.586C374.001 176.678 373.432 179.852 373.432 183.107C373.432 185.386 373.513 188.234 373.676 191.652C373.839 194.908 374.083 198.407 374.408 202.15C374.734 205.731 375.059 209.23 375.385 212.648C375.873 216.066 376.361 218.833 376.85 220.949C377.012 221.763 377.338 222.74 377.826 223.879C378.314 224.855 378.803 225.913 379.291 227.053C379.942 228.192 380.512 229.25 381 230.227C381.488 231.203 381.732 231.936 381.732 232.424ZM665.912 243.41C665.912 247.316 665.098 251.792 663.471 256.838C662.006 261.883 660.297 266.766 658.344 271.486C656.553 276.044 654.844 280.194 653.217 283.938C651.752 287.518 651.101 289.878 651.264 291.018C649.962 292.971 648.334 294.68 646.381 296.145C644.428 297.447 642.719 299.074 641.254 301.027C639.952 302.818 639.057 305.015 638.568 307.619C638.08 310.223 636.859 312.176 634.906 313.479C633.93 314.292 632.628 315.106 631 315.92C629.372 316.571 627.663 317.303 625.873 318.117C624.083 318.931 622.374 319.663 620.746 320.314C619.118 320.965 617.979 321.535 617.328 322.023C616.026 322.837 614.887 323.895 613.91 325.197C613.096 326.337 612.038 327.476 610.736 328.615C609.923 328.941 609.109 329.104 608.295 329.104C607.481 328.941 606.667 329.266 605.854 330.08L604.389 333.01C603.249 333.824 601.947 334.149 600.482 333.986C599.018 333.824 597.634 333.986 596.332 334.475C589.333 337.73 582.253 340.904 575.092 343.996C568.093 346.926 560.688 349.286 552.875 351.076C554.014 353.843 555.642 356.04 557.758 357.668C559.874 359.296 562.152 360.679 564.594 361.818C567.198 362.795 569.802 363.771 572.406 364.748C575.173 365.725 577.777 366.945 580.219 368.41C581.521 369.224 582.579 370.282 583.393 371.584C584.369 372.886 585.508 374.025 586.811 375.002C590.88 377.932 595.111 380.699 599.506 383.303C604.063 385.907 608.539 388.511 612.934 391.115C617.328 393.719 621.641 396.486 625.873 399.416C630.268 402.183 634.418 405.357 638.324 408.938C641.742 409.426 644.753 410.402 647.357 411.867C649.962 413.169 652.403 414.797 654.682 416.75C656.96 418.54 659.076 420.575 661.029 422.854C663.145 425.132 665.261 427.492 667.377 429.934V432.619C667.377 437.176 667.133 440.92 666.645 443.85C666.156 446.779 665.18 449.221 663.715 451.174C662.25 453.127 660.215 454.755 657.611 456.057C655.17 457.521 651.915 458.986 647.846 460.451C646.544 460.939 645.242 461.346 643.939 461.672C642.637 462.16 641.254 462.404 639.789 462.404C637.51 462.404 634.743 462.404 631.488 462.404C628.396 462.567 625.792 462.404 623.676 461.916C623.188 461.753 622.048 461.265 620.258 460.451C618.63 459.637 616.758 458.661 614.643 457.521C612.689 456.545 610.818 455.568 609.027 454.592C607.4 453.615 606.342 452.883 605.854 452.395C603.575 450.441 601.54 448.163 599.75 445.559C597.96 442.954 595.844 440.92 593.402 439.455C590.31 437.665 586.973 436.607 583.393 436.281C579.975 435.956 576.801 434.898 573.871 433.107C570.29 430.992 567.279 428.387 564.838 425.295C562.396 422.04 559.385 419.273 555.805 416.994C552.712 415.041 549.213 413.413 545.307 412.111C541.563 410.809 538.064 409.263 534.809 407.473C532.042 405.52 529.6 403.16 527.484 400.393C525.531 397.463 523.171 394.859 520.404 392.58C519.102 391.441 517.556 390.627 515.766 390.139C513.975 389.65 512.348 388.918 510.883 387.941C509.581 386.965 508.523 385.663 507.709 384.035C506.895 382.408 505.593 381.594 503.803 381.594H502.826C500.548 383.872 499.408 386.802 499.408 390.383C499.408 394.615 499.978 398.846 501.117 403.078C502.257 407.147 502.826 411.298 502.826 415.529C502.826 417.32 502.419 419.191 501.605 421.145C500.792 422.935 500.222 424.725 499.896 426.516C499.245 428.469 499.083 430.503 499.408 432.619C499.734 434.572 499.896 436.525 499.896 438.479C499.896 440.92 499.083 443.361 497.455 445.803C495.827 448.244 493.793 450.441 491.352 452.395C488.91 454.348 486.306 455.894 483.539 457.033C480.772 458.335 478.168 458.986 475.727 458.986C472.309 458.986 468.809 458.335 465.229 457.033C461.648 455.894 457.986 454.917 454.242 454.104C452.289 450.523 450.417 446.861 448.627 443.117C446.999 439.374 446.186 435.467 446.186 431.398C446.186 429.934 446.348 428.632 446.674 427.492C446.999 426.19 447.406 424.888 447.895 423.586C445.779 418.54 444.395 413.413 443.744 408.205C443.093 402.997 442.768 397.788 442.768 392.58C442.768 385.419 443.419 378.501 444.721 371.828C446.186 364.992 446.918 358.075 446.918 351.076C446.918 350.751 446.837 350.425 446.674 350.1C446.674 349.611 446.511 349.204 446.186 348.879L443.256 347.414C442.93 346.6 442.849 345.868 443.012 345.217C443.174 344.566 443.256 343.833 443.256 343.02C443.256 341.88 443.174 340.497 443.012 338.869C442.849 337.242 442.523 335.614 442.035 333.986C441.71 332.359 441.221 330.894 440.57 329.592C439.919 328.127 439.187 327.069 438.373 326.418C440.652 322.674 441.71 318.605 441.547 314.211C441.384 309.654 441.303 305.096 441.303 300.539C441.303 296.958 441.872 293.54 443.012 290.285C444.151 287.03 444.721 283.612 444.721 280.031C444.721 274.823 444.477 269.533 443.988 264.162C443.5 258.628 443.256 253.257 443.256 248.049C443.256 243.003 442.442 238.283 440.814 233.889C439.187 229.331 438.373 224.693 438.373 219.973C438.373 218.02 438.78 216.229 439.594 214.602C440.408 212.811 440.977 210.939 441.303 208.986C442.117 205.894 442.279 202.801 441.791 199.709C441.465 196.617 441.303 193.524 441.303 190.432C441.303 188.967 441.628 187.99 442.279 187.502C442.93 186.851 443.256 185.874 443.256 184.572C443.256 182.782 442.686 180.829 441.547 178.713C440.408 176.597 439.838 174.156 439.838 171.389C439.838 166.18 440.082 160.972 440.57 155.764C441.059 150.393 441.303 144.94 441.303 139.406C441.303 136.965 441.71 134.523 442.523 132.082C443.337 129.641 444.151 127.281 444.965 125.002C445.779 122.561 446.348 120.201 446.674 117.922C447.162 115.48 446.999 113.039 446.186 110.598C447.325 109.296 448.627 108.563 450.092 108.4C451.557 108.238 452.94 107.912 454.242 107.424C456.846 106.122 459.288 104.738 461.566 103.273C463.845 101.809 466.286 100.588 468.891 99.6113C471.658 98.3092 474.343 97.4954 476.947 97.1699C479.551 96.8444 482.318 96.4375 485.248 95.9492C486.55 95.6237 487.689 95.054 488.666 94.2402C489.643 93.4264 490.863 93.0195 492.328 93.0195C493.63 93.0195 494.851 93.2637 495.99 93.752C497.292 94.2402 498.594 94.4844 499.896 94.4844C500.71 93.1823 501.361 92.6126 501.85 92.7754C502.501 92.9382 503.477 93.0195 504.779 93.0195C505.756 93.0195 506.895 92.8568 508.197 92.5312C509.499 92.2057 510.801 91.8802 512.104 91.5547C513.406 91.2292 514.626 90.985 515.766 90.8223C516.905 90.6595 517.882 90.7409 518.695 91.0664C520.323 91.0664 521.869 90.8223 523.334 90.334C524.799 89.8457 526.264 89.6016 527.729 89.6016C529.519 89.6016 530.984 90.0898 532.123 91.0664C533.425 92.043 534.971 92.694 536.762 93.0195C538.878 93.3451 540.993 93.3451 543.109 93.0195C545.225 92.694 547.26 92.5312 549.213 92.5312C551.654 92.5312 553.77 92.7754 555.561 93.2637C557.514 93.752 559.304 94.403 560.932 95.2168C562.722 95.8678 564.512 96.6003 566.303 97.4141C568.093 98.2279 570.128 98.9603 572.406 99.6113C575.661 100.425 579.079 100.832 582.66 100.832C586.241 100.669 589.822 101.239 593.402 102.541C595.355 103.355 597.471 104.331 599.75 105.471C602.029 106.447 604.063 107.587 605.854 108.889C607.156 109.54 608.051 110.354 608.539 111.33C609.027 112.307 609.76 113.202 610.736 114.016C612.364 114.829 613.91 115.155 615.375 114.992C616.84 114.829 617.979 114.992 618.793 115.48C619.932 116.132 621.641 117.678 623.92 120.119C626.199 122.561 628.64 125.246 631.244 128.176C634.011 131.105 636.615 133.954 639.057 136.721C641.498 139.488 643.451 141.604 644.916 143.068L644.184 145.021C644.184 146.975 644.59 148.765 645.404 150.393C646.381 152.02 647.52 153.566 648.822 155.031C650.124 156.333 651.426 157.717 652.729 159.182C654.031 160.646 655.089 162.274 655.902 164.064C656.716 165.041 657.042 166.262 656.879 167.727C656.716 169.029 657.042 170.493 657.855 172.121C659.158 174.888 660.297 177.655 661.273 180.422C662.25 183.026 663.796 185.549 665.912 187.99C666.238 189.455 666.156 191.083 665.668 192.873C665.342 194.501 665.18 196.21 665.18 198C665.18 201.255 665.831 204.185 667.133 206.789C668.598 209.393 669.33 212.486 669.33 216.066C669.33 220.786 668.76 225.262 667.621 229.494C666.482 233.726 665.912 238.365 665.912 243.41ZM594.867 165.529L591.205 164.064C589.74 161.949 587.95 159.589 585.834 156.984C583.718 154.38 581.358 152.915 578.754 152.59C578.103 151.451 577.289 150.881 576.312 150.881C575.499 150.881 574.685 151.206 573.871 151.857C573.22 152.346 572.325 152.59 571.186 152.59C569.395 152.59 567.279 152.102 564.838 151.125C562.396 149.986 558.897 149.416 554.34 149.416C553.038 149.416 551.492 148.928 549.701 147.951C547.911 146.975 546.283 146.324 544.818 145.998C541.075 145.51 536.924 145.184 532.367 145.021C527.81 144.696 523.66 144.533 519.916 144.533C518.288 144.533 516.986 144.94 516.01 145.754C515.033 146.568 513.812 147.137 512.348 147.463C510.72 147.951 508.767 148.277 506.488 148.439C504.21 148.602 502.012 149.009 499.896 149.66C497.943 150.148 496.234 151.044 494.77 152.346C493.467 153.485 492.816 155.357 492.816 157.961C492.816 161.053 493.386 163.902 494.525 166.506C495.665 169.11 496.234 171.958 496.234 175.051C496.234 178.306 495.665 181.48 494.525 184.572C493.386 187.665 492.816 190.839 492.816 194.094C492.816 200.279 493.142 206.545 493.793 212.893C494.444 219.077 494.77 225.425 494.77 231.936C494.77 237.632 495.258 243.247 496.234 248.781C497.211 254.152 497.699 259.686 497.699 265.383C497.699 269.615 497.374 273.928 496.723 278.322C496.072 282.554 495.746 286.786 495.746 291.018C495.746 292.971 495.827 294.924 495.99 296.877C496.316 298.83 496.885 300.702 497.699 302.492C500.303 301.516 503.07 300.946 506 300.783C509.092 300.458 512.185 300.376 515.277 300.539C518.37 300.539 521.462 300.702 524.555 301.027C527.647 301.19 530.577 301.19 533.344 301.027H539.691C541.156 299.725 542.621 298.83 544.086 298.342C545.714 297.691 547.341 297.202 548.969 296.877C550.759 296.551 552.468 296.226 554.096 295.9C555.886 295.575 557.595 295.087 559.223 294.436C560.688 293.785 562.152 292.808 563.617 291.506C565.082 290.204 566.465 289.064 567.768 288.088C569.232 286.949 570.697 286.053 572.162 285.402C573.79 284.589 575.499 284.263 577.289 284.426H580.219C580.87 282.473 581.846 280.764 583.148 279.299C584.451 277.834 585.834 276.451 587.299 275.148C588.764 273.684 590.147 272.219 591.449 270.754C592.914 269.126 594.053 267.336 594.867 265.383C596.82 264.895 598.692 263.999 600.482 262.697C602.273 261.232 603.575 259.523 604.389 257.57L607.807 255.617V252.443L610.736 250.979C611.55 249.514 611.876 248.13 611.713 246.828C611.713 245.526 611.713 244.061 611.713 242.434C611.713 241.294 611.957 239.829 612.445 238.039C613.096 236.086 613.747 233.97 614.398 231.691C615.212 229.25 615.863 226.646 616.352 223.879C617.003 220.949 617.328 217.857 617.328 214.602C617.328 212.974 617.165 211.672 616.84 210.695C616.514 209.719 616.107 208.905 615.619 208.254C615.131 207.44 614.561 206.626 613.91 205.812C613.259 204.999 612.689 203.859 612.201 202.395C611.876 201.255 611.632 199.953 611.469 198.488C611.306 196.861 611.143 195.314 610.98 193.85C610.98 192.385 610.818 191.001 610.492 189.699C610.329 188.397 609.923 187.339 609.271 186.525C606.993 182.782 604.47 179.283 601.703 176.027C598.936 172.772 596.658 169.273 594.867 165.529ZM1115.13 396.975C1115.13 398.928 1114.24 400.637 1112.45 402.102C1110.82 403.566 1109.52 405.031 1108.54 406.496C1107.73 407.473 1107.4 408.531 1107.56 409.67C1107.73 410.809 1107.56 411.949 1107.07 413.088C1106.26 413.902 1105.28 414.39 1104.14 414.553C1103.17 414.715 1102.44 415.204 1101.95 416.018C1100.97 417.32 1100.08 418.866 1099.26 420.656C1098.45 422.447 1097.55 424.237 1096.58 426.027C1095.76 427.655 1094.7 429.201 1093.4 430.666C1092.26 432.131 1090.8 433.27 1089.01 434.084C1088.03 434.572 1086.89 434.898 1085.59 435.061C1084.45 435.061 1083.23 435.061 1081.93 435.061C1078.51 435.061 1074.77 434.491 1070.7 433.352C1066.79 432.212 1063.7 430.259 1061.42 427.492C1060.44 427.004 1058.9 426.434 1056.78 425.783C1054.83 424.969 1052.71 424.237 1050.43 423.586C1048.32 422.772 1046.28 422.04 1044.33 421.389C1042.38 420.575 1041.07 419.924 1040.42 419.436C1039.61 418.622 1038.88 417.401 1038.23 415.773C1037.58 413.983 1036.84 412.518 1036.03 411.379C1035.05 410.077 1033.91 409.019 1032.61 408.205C1031.31 407.391 1030.25 406.333 1029.44 405.031C1028.46 403.566 1027.81 401.939 1027.48 400.148C1027.32 398.195 1026.83 396.486 1026.02 395.021C1024.07 390.79 1021.46 386.721 1018.21 382.814C1014.95 378.745 1011.7 374.839 1008.44 371.096C1006.65 368.98 1004.13 366.538 1000.87 363.771C997.618 361.005 995.339 358.563 994.037 356.447C993.549 355.471 993.305 354.413 993.305 353.273C993.305 352.134 993.061 351.076 992.572 350.1C991.596 347.821 990.375 345.786 988.91 343.996C987.445 342.043 986.469 339.683 985.98 336.916C984.027 333.986 981.586 331.464 978.656 329.348C975.889 327.069 973.529 324.302 971.576 321.047C969.298 317.466 966.693 314.211 963.764 311.281C960.997 308.189 958.23 305.178 955.463 302.248C952.859 299.156 950.499 295.9 948.383 292.482C946.267 289.064 944.802 285.077 943.988 280.52C939.919 276.288 935.525 272.3 930.805 268.557C926.085 264.65 922.504 260.093 920.062 254.885C918.76 252.606 917.702 250.653 916.889 249.025C916.075 247.235 915.098 245.689 913.959 244.387C912.82 243.085 911.436 241.864 909.809 240.725C908.344 239.585 906.228 238.365 903.461 237.062C902.973 239.829 902.647 242.678 902.484 245.607C902.484 248.374 902.484 251.141 902.484 253.908C902.484 262.697 902.973 271.405 903.949 280.031C904.926 288.495 905.414 297.121 905.414 305.91C905.414 309.003 905.089 311.932 904.438 314.699C903.786 317.466 903.461 320.233 903.461 323C903.461 327.557 903.949 332.033 904.926 336.428C906.065 340.66 906.635 345.054 906.635 349.611C906.635 350.913 906.798 351.971 907.123 352.785C907.449 353.599 907.855 354.331 908.344 354.982C908.832 355.471 909.239 356.04 909.564 356.691C909.89 357.18 910.053 357.912 910.053 358.889C910.053 361.493 909.809 364.016 909.32 366.457C908.832 368.898 908.588 371.421 908.588 374.025C908.588 375.327 908.832 377.118 909.32 379.396C909.971 381.675 910.704 384.035 911.518 386.477C912.331 388.918 913.145 391.278 913.959 393.557C914.936 395.673 915.831 397.3 916.645 398.439C915.342 401.206 914.203 403.811 913.227 406.252C912.25 408.531 911.436 410.891 910.785 413.332C910.297 415.611 909.971 418.052 909.809 420.656C909.646 423.098 909.727 425.865 910.053 428.957C909.239 430.259 907.367 432.049 904.438 434.328C901.508 436.444 898.253 438.56 894.672 440.676C891.091 442.792 887.673 444.663 884.418 446.291C881.163 447.756 878.884 448.488 877.582 448.488C876.117 448.488 874.978 448.326 874.164 448C873.35 447.837 872.699 447.512 872.211 447.023C871.723 446.535 871.153 446.047 870.502 445.559C870.014 444.908 869.2 444.257 868.061 443.605C867.084 442.792 865.701 442.303 863.91 442.141C862.283 441.815 860.98 441.245 860.004 440.432C858.539 439.13 856.911 436.932 855.121 433.84C853.493 430.585 851.947 427.167 850.482 423.586C849.18 420.005 848.041 416.506 847.064 413.088C846.088 409.67 845.6 406.984 845.6 405.031C845.6 402.427 846.251 399.904 847.553 397.463C849.018 395.021 849.994 392.661 850.482 390.383C851.296 386.151 851.947 381.431 852.436 376.223C853.087 371.014 853.412 366.132 853.412 361.574C853.412 357.017 852.436 352.622 850.482 348.391C851.459 345.461 852.11 342.45 852.436 339.357C852.761 336.102 852.924 333.01 852.924 330.08C852.924 323.732 852.273 316.978 850.971 309.816C849.669 302.492 847.39 296.063 844.135 290.529C844.298 287.762 844.786 285.158 845.6 282.717C846.576 280.113 847.553 277.59 848.529 275.148C849.506 272.707 850.482 270.266 851.459 267.824C852.436 265.22 853.087 262.616 853.412 260.012C854.226 255.943 854.389 251.955 853.9 248.049C853.575 244.143 853.412 240.318 853.412 236.574C853.412 234.458 853.575 232.668 853.9 231.203C854.226 229.576 854.796 227.867 855.609 226.076C855.284 223.798 854.633 221.6 853.656 219.484C852.842 217.368 852.273 215.171 851.947 212.893C851.622 210.451 851.54 208.01 851.703 205.568C851.866 202.964 851.947 200.279 851.947 197.512C851.947 194.419 851.703 191.49 851.215 188.723C850.727 185.956 850.482 183.026 850.482 179.934C850.482 177.492 850.971 175.214 851.947 173.098C852.924 170.819 853.412 168.459 853.412 166.018C853.412 160.321 852.842 154.624 851.703 148.928C850.564 143.068 849.994 137.29 849.994 131.594C849.994 127.525 851.459 123.781 854.389 120.363C857.481 116.783 860.492 113.853 863.422 111.574C874.652 112.876 884.255 116.294 892.23 121.828C900.368 127.362 905.821 135.744 908.588 146.975C908.751 148.114 909.076 148.928 909.564 149.416C910.053 149.742 910.541 149.986 911.029 150.148C911.68 150.148 912.331 150.23 912.982 150.393C913.633 150.555 914.285 150.962 914.936 151.613C916.075 152.915 916.645 154.299 916.645 155.764C916.807 157.229 917.296 158.612 918.109 159.914C920.714 163.007 922.504 164.878 923.48 165.529C924.62 166.018 925.515 166.506 926.166 166.994C926.98 167.482 927.875 168.622 928.852 170.412C929.991 172.04 931.863 175.539 934.467 180.91C936.908 183.352 939.105 186.037 941.059 188.967C943.174 191.734 945.209 194.582 947.162 197.512C949.278 200.441 951.475 203.29 953.754 206.057C956.033 208.661 958.637 210.939 961.566 212.893C961.892 215.008 962.462 216.962 963.275 218.752C964.089 220.542 964.659 222.495 964.984 224.611C965.635 225.751 967.1 227.704 969.379 230.471C971.82 233.075 974.262 235.842 976.703 238.771C979.307 241.538 981.586 244.143 983.539 246.584C985.492 248.863 986.469 250.165 986.469 250.49C986.469 251.141 986.794 251.467 987.445 251.467C989.724 252.443 991.677 253.745 993.305 255.373C995.095 257.001 996.967 258.547 998.92 260.012C1001.04 267.336 1004.54 273.684 1009.42 279.055C1014.3 284.426 1019.83 289.227 1026.02 293.459C1026.18 295.249 1026.67 296.877 1027.48 298.342C1028.3 299.644 1029.19 300.946 1030.17 302.248C1031.31 303.387 1032.37 304.608 1033.34 305.91C1034.48 307.212 1035.38 308.596 1036.03 310.061C1036.52 311.037 1036.76 312.014 1036.76 312.99C1036.76 313.967 1037.01 314.943 1037.49 315.92C1037.98 317.059 1038.71 317.954 1039.69 318.605C1040.83 319.257 1041.81 320.07 1042.62 321.047C1043.27 322.186 1043.76 323.57 1044.09 325.197C1044.57 326.662 1045.06 328.208 1045.55 329.836C1046.2 331.301 1047.02 332.603 1047.99 333.742C1048.97 334.719 1050.35 335.288 1052.14 335.451C1053.12 333.01 1053.61 330.161 1053.61 326.906C1053.61 323.488 1053.2 320.152 1052.39 316.896C1051.57 313.641 1050.6 310.386 1049.46 307.131C1048.48 303.713 1047.59 300.376 1046.77 297.121C1045.96 293.866 1045.55 290.529 1045.55 287.111C1045.55 284.833 1046.12 282.717 1047.26 280.764C1048.4 278.811 1048.97 276.695 1048.97 274.416C1048.97 272.137 1048.48 269.94 1047.5 267.824C1046.53 265.546 1045.88 263.43 1045.55 261.477C1044.9 257.733 1044.57 253.583 1044.57 249.025C1044.74 244.305 1044.74 239.585 1044.57 234.865C1044.41 230.145 1043.92 225.588 1043.11 221.193C1042.46 216.799 1041.07 213.055 1038.96 209.963C1039.28 208.986 1039.45 208.01 1039.45 207.033C1039.45 206.057 1039.45 205.08 1039.45 204.104C1039.45 199.872 1039.12 195.559 1038.47 191.164C1037.82 186.607 1037.49 182.049 1037.49 177.492C1037.49 174.237 1037.82 170.982 1038.47 167.727C1039.12 164.309 1040.51 161.053 1042.62 157.961C1042.13 154.706 1040.99 151.939 1039.2 149.66C1037.58 147.382 1036.03 144.859 1034.56 142.092C1034.56 141.278 1034.65 140.546 1034.81 139.895C1034.97 139.081 1035.05 138.267 1035.05 137.453C1035.05 135.826 1034.81 134.117 1034.32 132.326C1033.83 130.536 1033.26 128.827 1032.61 127.199C1032.12 125.409 1031.63 123.618 1031.15 121.828C1030.82 120.038 1030.74 118.247 1030.9 116.457V113.039L1032.61 111.574C1032.61 109.947 1032.53 108.482 1032.37 107.18C1032.2 105.878 1032.12 104.494 1032.12 103.029C1032.12 100.262 1033.26 97.5768 1035.54 94.9727C1037.98 92.2057 1040.83 89.7643 1044.09 87.6484C1047.34 85.3698 1050.68 83.5794 1054.1 82.2773C1057.68 80.8125 1060.69 80.0801 1063.13 80.0801C1064.76 80.0801 1066.38 80.487 1068.01 81.3008C1069.64 82.1146 1071.19 83.0098 1072.65 83.9863C1074.28 84.9629 1075.82 85.9395 1077.29 86.916C1078.92 87.8926 1080.63 88.625 1082.42 89.1133C1084.04 92.8568 1086.24 96.112 1089.01 98.8789C1091.77 101.483 1093.97 104.494 1095.6 107.912C1096.25 109.54 1096.58 111.411 1096.58 113.527C1096.74 115.48 1096.82 117.596 1096.82 119.875C1096.82 121.991 1096.9 124.188 1097.06 126.467C1097.39 128.583 1098.04 130.617 1099.02 132.57C1098.04 133.872 1097.39 135.5 1097.06 137.453C1096.74 139.243 1096.58 141.197 1096.58 143.312C1096.58 145.428 1096.66 147.544 1096.82 149.66C1096.98 151.613 1097.06 153.404 1097.06 155.031C1097.06 156.333 1096.82 157.391 1096.33 158.205C1095.84 159.019 1095.6 160.077 1095.6 161.379C1095.6 162.518 1095.84 163.413 1096.33 164.064C1096.82 164.553 1097.06 165.204 1097.06 166.018C1097.06 167.482 1096.66 169.191 1095.84 171.145C1095.03 172.935 1094.46 174.562 1094.13 176.027C1093.48 178.794 1093.08 181.561 1092.91 184.328C1092.91 186.932 1092.91 189.455 1092.91 191.896C1092.91 199.709 1093.73 207.115 1095.36 214.113C1096.98 221.112 1098.2 228.273 1099.02 235.598C1099.34 240.643 1099.51 245.689 1099.51 250.734C1099.51 255.617 1099.42 260.581 1099.26 265.627C1099.26 270.51 1099.26 275.393 1099.26 280.275C1099.42 285.158 1099.83 290.041 1100.48 294.924C1101.13 300.783 1101.87 305.503 1102.68 309.084C1103.66 312.665 1104.55 316.164 1105.37 319.582C1106.18 322.837 1106.91 326.499 1107.56 330.568C1108.21 334.637 1108.54 340.09 1108.54 346.926C1108.54 351.483 1109.03 355.959 1110 360.354C1110.98 364.585 1111.47 368.98 1111.47 373.537C1111.47 376.467 1112.04 379.315 1113.18 382.082C1114.48 384.686 1115.13 387.453 1115.13 390.383V392.092L1113.42 395.021C1114.56 395.021 1115.13 395.673 1115.13 396.975ZM1404.44 434.084C1404.44 437.014 1404.03 439.618 1403.22 441.896C1402.4 444.012 1401.43 445.965 1400.29 447.756C1399.15 449.546 1397.85 451.337 1396.38 453.127C1395.08 454.917 1393.86 457.033 1392.72 459.475L1389.3 458.986C1386.05 458.986 1382.79 459.23 1379.54 459.719C1376.28 460.207 1373.02 460.451 1369.77 460.451C1366.84 460.451 1364.07 459.963 1361.47 458.986C1359.03 458.01 1357.16 455.975 1355.85 452.883C1353.57 451.581 1351.3 450.604 1349.02 449.953C1346.74 449.465 1344.7 448.326 1342.91 446.535V444.094C1342.91 441.815 1342.18 439.781 1340.72 437.99C1339.25 436.2 1338.28 434.165 1337.79 431.887C1336.81 427.492 1336.4 422.935 1336.57 418.215C1336.73 413.332 1336.81 408.612 1336.81 404.055C1336.81 399.986 1336.4 395.998 1335.59 392.092C1334.78 388.186 1333.88 384.361 1332.9 380.617C1331.93 376.711 1331.03 372.886 1330.22 369.143C1329.57 365.236 1329.4 361.33 1329.73 357.424C1322.73 356.61 1315.81 355.959 1308.98 355.471C1302.31 354.82 1295.39 354.494 1288.23 354.494C1282.2 354.494 1276.1 354.82 1269.92 355.471C1263.89 355.959 1258.03 357.342 1252.34 359.621C1249.25 357.831 1245.91 356.529 1242.33 355.715C1238.91 354.901 1235.41 354.494 1231.83 354.494C1228.09 354.494 1224.75 354.982 1221.82 355.959C1220.52 359.214 1219.87 362.469 1219.87 365.725C1219.87 368.98 1219.38 372.235 1218.4 375.49C1218.08 376.955 1217.51 378.013 1216.69 378.664C1216.04 379.152 1215.55 379.803 1215.23 380.617C1214.9 381.431 1214.82 382.326 1214.98 383.303C1215.15 384.117 1215.23 385.012 1215.23 385.988C1215.23 386.965 1214.5 388.511 1213.03 390.627C1211.73 392.743 1210.83 394.696 1210.35 396.486C1209.53 400.718 1209.04 405.275 1208.88 410.158C1208.88 414.878 1208.88 419.517 1208.88 424.074C1208.88 425.051 1209.21 425.946 1209.86 426.76C1210.51 427.411 1210.83 428.143 1210.83 428.957C1210.83 429.771 1209.61 431.968 1207.17 435.549C1204.73 438.967 1201.96 442.71 1198.87 446.779C1195.94 450.686 1193.17 454.185 1190.57 457.277C1187.97 460.533 1186.58 462.242 1186.42 462.404C1185.28 462.73 1184.22 462.893 1183.25 462.893C1182.27 462.893 1181.29 462.893 1180.32 462.893C1174.62 462.893 1169.09 461.509 1163.71 458.742C1158.34 456.138 1153.54 453.046 1149.31 449.465V446.047C1149.31 441.815 1148.99 437.583 1148.33 433.352C1147.68 428.957 1146.87 424.644 1145.89 420.412C1148.17 417.482 1149.64 414.471 1150.29 411.379C1150.94 408.286 1151.1 405.031 1150.78 401.613C1152.24 399.986 1153.46 398.684 1154.44 397.707C1155.58 396.73 1156.47 395.754 1157.12 394.777C1157.77 393.801 1158.18 392.661 1158.34 391.359C1158.67 390.057 1158.83 388.267 1158.83 385.988V385.012L1162.25 382.082C1162.58 380.292 1162.58 378.664 1162.25 377.199C1161.92 375.572 1161.76 373.863 1161.76 372.072C1161.76 370.77 1161.92 369.712 1162.25 368.898L1165.42 365.969C1165.75 364.992 1165.83 364.097 1165.67 363.283C1165.51 362.307 1165.42 361.411 1165.42 360.598C1165.42 359.784 1165.67 359.133 1166.16 358.645C1166.64 357.993 1167.21 357.342 1167.87 356.691C1168.52 356.04 1169.09 355.389 1169.57 354.738C1170.06 354.087 1170.31 353.355 1170.31 352.541V351.564C1163.63 350.588 1157.12 350.588 1150.78 351.564C1148.66 350.1 1146.46 348.553 1144.18 346.926C1142.07 345.298 1140.11 343.589 1138.32 341.799C1136.53 340.008 1135.07 337.974 1133.93 335.695C1132.79 333.417 1132.22 330.812 1132.22 327.883C1132.22 322.512 1133.28 318.443 1135.39 315.676C1137.51 312.909 1140.03 310.63 1142.96 308.84C1146.06 306.887 1149.31 305.096 1152.73 303.469C1156.31 301.841 1159.48 299.481 1162.25 296.389H1174.95C1177.88 293.459 1180.4 290.285 1182.51 286.867C1184.79 283.286 1186.58 279.462 1187.88 275.393C1188.37 273.928 1188.62 272.382 1188.62 270.754C1188.62 269.126 1188.86 267.58 1189.35 266.115C1190.81 262.86 1192.77 259.93 1195.21 257.326C1197.65 254.559 1199.52 251.467 1200.82 248.049C1201.64 245.445 1201.88 242.759 1201.56 239.992C1201.23 237.225 1201.48 234.54 1202.29 231.936C1203.75 227.541 1205.38 223.635 1207.17 220.217C1208.96 216.799 1210.67 213.381 1212.3 209.963C1214.09 206.382 1215.55 202.395 1216.69 198C1217.83 193.605 1218.4 188.234 1218.4 181.887C1218.4 180.91 1218.16 180.096 1217.67 179.445C1217.18 178.794 1216.94 177.98 1216.94 177.004C1216.94 176.027 1217.59 174.562 1218.89 172.609C1220.36 170.656 1221.33 168.947 1221.82 167.482C1222.31 165.692 1222.31 163.983 1221.82 162.355C1221.49 160.565 1221.33 158.775 1221.33 156.984C1221.33 155.845 1222.23 153.322 1224.02 149.416C1225.81 145.347 1227.92 141.115 1230.37 136.721C1232.81 132.163 1235.33 127.932 1237.93 124.025C1240.54 119.956 1242.65 117.271 1244.28 115.969C1244.44 112.388 1245.1 109.296 1246.23 106.691C1247.37 103.924 1248.68 101.32 1250.14 98.8789C1251.61 96.4375 1253.15 93.9961 1254.78 91.5547C1256.41 89.1133 1257.79 86.4277 1258.93 83.498C1261.21 83.498 1262.84 82.5215 1263.81 80.5684C1264.14 80.2428 1264.63 80.0801 1265.28 80.0801C1267.88 80.0801 1270.81 80.3242 1274.07 80.8125C1277.32 81.3008 1281.07 81.5449 1285.3 81.5449C1289.04 81.5449 1292.62 82.4401 1296.04 84.2305C1299.62 85.8581 1302.88 87.8112 1305.8 90.0898C1308.57 92.2057 1311.18 95.7865 1313.62 100.832C1316.22 105.878 1318.66 111.737 1320.94 118.41C1323.22 124.921 1325.34 131.919 1327.29 139.406C1329.4 146.893 1331.36 154.217 1333.15 161.379C1334.94 168.378 1336.65 174.888 1338.28 180.91C1339.9 186.77 1341.45 191.49 1342.91 195.07C1343.73 197.349 1344.79 199.465 1346.09 201.418C1347.39 203.208 1348.45 205.406 1349.26 208.01C1349.75 210.288 1349.91 212.648 1349.75 215.09C1349.59 217.531 1349.91 219.973 1350.73 222.414C1351.38 224.53 1352.19 226.402 1353.17 228.029C1354.14 229.657 1355.04 231.447 1355.85 233.4C1357.16 238.446 1357.97 243.654 1358.29 249.025C1358.62 254.234 1359.84 259.198 1361.96 263.918C1366.19 273.521 1369.61 283.286 1372.21 293.215C1374.98 303.143 1376.36 313.234 1376.36 323.488C1376.36 325.767 1377.01 328.127 1378.31 330.568C1378.31 331.87 1378.72 333.254 1379.54 334.719C1380.35 336.184 1381.24 337.73 1382.22 339.357C1383.36 340.822 1384.42 342.287 1385.39 343.752C1386.53 345.217 1387.35 346.6 1387.84 347.902C1388.16 348.879 1388.81 351.564 1389.79 355.959C1390.77 360.191 1391.82 365.318 1392.96 371.34C1394.26 377.362 1395.57 383.872 1396.87 390.871C1398.17 397.707 1399.39 404.217 1400.53 410.402C1401.67 416.424 1402.57 421.633 1403.22 426.027C1404.03 430.422 1404.44 433.107 1404.44 434.084ZM1315.33 301.516C1315.16 298.26 1314.59 295.087 1313.62 291.994C1312.64 288.902 1311.5 285.891 1310.2 282.961C1309.06 279.868 1307.84 276.776 1306.54 273.684C1305.4 270.428 1304.5 267.173 1303.85 263.918C1303.36 260.5 1303.2 256.838 1303.36 252.932C1303.69 249.025 1303.36 245.201 1302.39 241.457C1301.9 239.504 1301.33 238.12 1300.68 237.307C1300.19 236.493 1299.7 235.76 1299.21 235.109C1298.89 234.296 1298.56 233.319 1298.24 232.18C1297.91 230.878 1297.75 228.843 1297.75 226.076C1297.75 224.611 1297.34 223.228 1296.53 221.926C1295.88 220.624 1295.14 219.322 1294.33 218.02C1293.52 216.717 1292.7 215.171 1291.89 213.381C1291.24 211.59 1290.91 209.475 1290.91 207.033C1290.91 205.568 1291.16 204.104 1291.64 202.639C1292.13 201.011 1292.54 199.465 1292.87 198C1289.77 195.233 1287.17 192.141 1285.05 188.723C1283.1 185.305 1280.82 182.049 1278.22 178.957C1277.08 179.608 1276.35 180.666 1276.02 182.131C1275.69 183.596 1275.53 185.223 1275.53 187.014C1275.53 188.641 1275.53 190.35 1275.53 192.141C1275.53 193.931 1275.29 195.396 1274.8 196.535C1274.31 198 1273.33 199.139 1271.87 199.953C1270.57 200.604 1269.43 201.581 1268.45 202.883C1267.64 204.185 1266.99 205.65 1266.5 207.277C1266.17 208.905 1265.28 210.126 1263.81 210.939V225.588C1260.07 229.982 1256.98 235.109 1254.54 240.969C1252.26 246.828 1250.3 252.932 1248.68 259.279C1247.21 265.627 1245.99 272.056 1245.01 278.566C1244.2 284.914 1243.47 290.855 1242.82 296.389C1243.3 296.714 1243.87 296.958 1244.53 297.121C1245.18 297.121 1245.75 297.121 1246.23 297.121C1249 297.121 1251.69 296.796 1254.29 296.145C1256.9 295.331 1259.58 294.924 1262.35 294.924C1269.35 294.924 1276.18 295.412 1282.86 296.389C1284.65 296.714 1286.19 297.365 1287.49 298.342C1288.96 299.156 1290.59 299.562 1292.38 299.562C1293.19 299.562 1293.84 299.318 1294.33 298.83C1294.98 298.342 1295.96 298.098 1297.26 298.098C1299.86 298.098 1302.31 298.83 1304.58 300.295C1306.86 301.76 1309.3 302.492 1311.91 302.492C1312.88 302.492 1314.02 302.167 1315.33 301.516ZM1798.24 414.553C1798.24 416.994 1797.91 419.436 1797.26 421.877C1796.61 424.156 1795.96 426.516 1795.31 428.957C1794.82 431.398 1794.41 433.84 1794.09 436.281C1793.76 438.723 1793.92 441.164 1794.57 443.605C1791.16 445.07 1787.9 446.779 1784.81 448.732C1781.72 450.686 1778.54 452.801 1775.29 455.08C1773.33 454.917 1771.3 454.51 1769.18 453.859C1767.23 453.371 1765.28 452.801 1763.32 452.15C1761.37 451.499 1759.34 451.011 1757.22 450.686C1755.27 450.523 1753.23 450.767 1751.12 451.418C1748.68 449.465 1746.23 447.593 1743.79 445.803C1741.35 443.85 1738.5 442.548 1735.25 441.896C1735.25 434.572 1734.76 427.085 1733.78 419.436C1732.97 416.18 1731.91 413.007 1730.61 409.914C1729.31 406.822 1728.66 403.485 1728.66 399.904C1728.66 397.137 1728.98 394.533 1729.63 392.092C1730.28 389.488 1730.61 386.802 1730.61 384.035C1730.61 381.268 1730.04 378.745 1728.9 376.467C1727.92 374.025 1726.7 371.665 1725.24 369.387C1724.91 365.643 1724.91 361.818 1725.24 357.912C1725.56 354.006 1725.73 350.181 1725.73 346.438C1725.73 343.182 1725.4 339.52 1724.75 335.451C1724.26 331.219 1722.39 328.046 1719.13 325.93V323C1719.13 321.21 1718.81 319.582 1718.16 318.117C1717.51 316.49 1717.18 314.781 1717.18 312.99C1716.37 312.014 1715.31 310.061 1714.01 307.131C1712.87 304.038 1711.57 300.783 1710.1 297.365C1708.8 293.785 1707.58 290.448 1706.44 287.355C1705.46 284.1 1704.89 281.822 1704.73 280.52C1703.92 276.939 1703.51 273.358 1703.51 269.777C1703.67 266.034 1703.75 262.29 1703.75 258.547C1703.75 255.129 1703.35 251.874 1702.53 248.781C1701.88 245.689 1700.99 242.678 1699.85 239.748C1698.87 236.656 1697.89 233.563 1696.92 230.471C1695.94 227.378 1695.21 224.204 1694.72 220.949C1692.77 221.275 1691.47 222.333 1690.81 224.123C1690.16 225.751 1689.68 227.541 1689.35 229.494C1689.19 231.447 1688.86 233.4 1688.37 235.354C1688.05 237.144 1686.99 238.365 1685.2 239.016L1684.71 240.48C1684.71 241.457 1685.04 242.352 1685.69 243.166C1686.34 243.98 1686.66 244.956 1686.66 246.096C1686.66 247.886 1686.26 249.27 1685.44 250.246C1684.79 251.223 1683.98 252.118 1683 252.932C1682.03 253.583 1680.97 254.315 1679.83 255.129C1678.69 255.78 1677.79 256.757 1677.14 258.059C1677.14 258.547 1677.22 259.117 1677.39 259.768C1677.55 260.256 1677.63 260.663 1677.63 260.988C1677.63 263.267 1676.98 265.301 1675.68 267.092C1674.38 268.882 1673.72 270.998 1673.72 273.439C1673.72 275.23 1674.05 277.02 1674.7 278.811C1675.35 280.438 1675.68 282.147 1675.68 283.938C1675.68 285.402 1674.86 288.332 1673.24 292.727C1671.61 297.121 1669.66 301.841 1667.38 306.887C1665.26 311.932 1663.06 316.652 1660.79 321.047C1658.67 325.279 1657.12 327.964 1656.15 329.104C1655.17 333.01 1654.76 337.079 1654.93 341.311C1655.25 345.38 1655.17 349.449 1654.68 353.518C1654.19 355.959 1653.46 358.4 1652.48 360.842C1651.51 363.12 1650.61 365.48 1649.8 367.922C1648.99 370.201 1648.5 372.642 1648.33 375.246C1648.17 377.85 1647.44 380.292 1646.14 382.57C1645.32 384.035 1644.26 385.337 1642.96 386.477C1641.82 387.453 1640.52 388.511 1639.06 389.65C1637.75 390.627 1636.37 391.685 1634.91 392.824C1633.6 393.964 1632.55 395.347 1631.73 396.975C1627.66 397.463 1623.59 398.277 1619.53 399.416C1615.46 400.393 1611.31 400.881 1607.07 400.881C1605.61 400.881 1604.14 400.799 1602.68 400.637C1601.21 400.474 1599.75 400.23 1598.29 399.904C1596.17 397.951 1594.38 395.673 1592.91 393.068C1591.45 390.464 1589.33 388.43 1586.57 386.965C1585.75 380.943 1584.21 375.002 1581.93 369.143C1579.65 363.283 1575.91 358.563 1570.7 354.982C1571.67 353.518 1572.16 352.053 1572.16 350.588C1572.16 347.821 1571.19 345.298 1569.23 343.02C1567.44 340.741 1566.22 338.218 1565.57 335.451C1565.24 333.498 1565.16 331.626 1565.33 329.836C1565.49 327.883 1565.57 325.93 1565.57 323.977C1565.57 322.674 1565.33 321.617 1564.84 320.803C1564.35 319.989 1564.11 319.094 1564.11 318.117C1565.08 316.978 1565.57 315.757 1565.57 314.455C1565.57 314.292 1564.59 312.502 1562.64 309.084C1560.69 305.666 1558.57 301.678 1556.29 297.121C1554.01 292.401 1551.9 287.6 1549.95 282.717C1547.99 277.834 1546.93 273.928 1546.77 270.998L1548.24 270.021C1548.24 269.533 1547.99 269.045 1547.5 268.557C1547.02 268.068 1546.77 267.417 1546.77 266.604C1546.77 265.301 1547.1 263.918 1547.75 262.453C1548.56 260.826 1549.21 259.361 1549.7 258.059C1549.38 255.78 1548.81 253.745 1547.99 251.955C1547.34 250.002 1546.61 248.13 1545.79 246.34C1544.98 244.549 1544.25 242.678 1543.6 240.725C1543.11 238.609 1542.95 236.33 1543.11 233.889C1542.3 234.865 1540.75 236.9 1538.47 239.992C1536.35 242.922 1534.16 246.096 1531.88 249.514C1529.76 252.932 1527.81 256.105 1526.02 259.035C1524.39 261.965 1523.58 263.918 1523.58 264.895C1523.58 266.197 1523.9 267.499 1524.55 268.801C1525.37 269.94 1525.78 271.161 1525.78 272.463C1525.78 273.928 1525.45 275.393 1524.8 276.857C1524.31 278.16 1523.74 279.543 1523.09 281.008C1522.6 282.31 1522.03 283.693 1521.38 285.158C1520.89 286.623 1520.65 288.251 1520.65 290.041C1520.65 293.785 1520.97 297.528 1521.62 301.271C1522.28 305.015 1522.6 308.758 1522.6 312.502C1522.6 317.71 1522.11 321.454 1521.14 323.732C1520.16 325.848 1518.86 327.395 1517.23 328.371C1515.77 329.348 1514.14 330.243 1512.35 331.057C1510.72 331.708 1509.17 333.173 1507.71 335.451C1506.73 341.636 1506.08 347.821 1505.76 354.006C1505.59 360.191 1505.27 366.376 1504.78 372.561C1504.62 374.025 1504.21 375.083 1503.56 375.734C1503.07 376.385 1502.42 376.955 1501.61 377.443C1500.79 377.769 1499.9 378.176 1498.92 378.664C1498.11 378.99 1497.37 379.641 1496.72 380.617C1497.05 381.594 1497.29 382.489 1497.46 383.303C1497.62 384.117 1497.7 385.012 1497.7 385.988C1497.7 388.267 1497.05 390.301 1495.75 392.092C1494.61 393.882 1493.22 395.51 1491.6 396.975C1491.92 398.277 1492.17 399.579 1492.33 400.881C1492.49 402.183 1492.57 403.566 1492.57 405.031C1492.57 406.822 1492.17 408.531 1491.35 410.158C1490.7 411.786 1489.64 413.251 1488.18 414.553V416.506C1488.18 418.459 1488.5 420.575 1489.15 422.854C1489.81 424.969 1490.13 427.004 1490.13 428.957C1490.13 430.422 1489.24 431.398 1487.45 431.887C1485.82 432.212 1484.6 432.945 1483.78 434.084C1482.64 435.061 1481.99 436.281 1481.83 437.746C1481.67 439.211 1481.1 440.594 1480.12 441.896C1478.66 444.175 1476.7 446.21 1474.26 448C1471.82 449.628 1469.62 451.499 1467.67 453.615H1462.79C1459.21 453.615 1455.63 453.452 1452.04 453.127C1448.63 452.801 1445.21 452.964 1441.79 453.615C1439.35 452.15 1437.23 450.36 1435.44 448.244C1433.65 446.128 1431.94 444.012 1430.32 441.896C1428.85 439.618 1427.31 437.421 1425.68 435.305C1424.21 433.026 1422.59 430.91 1420.79 428.957C1421.28 425.539 1421.45 421.958 1421.28 418.215C1421.28 414.471 1421.28 410.728 1421.28 406.984C1421.28 402.753 1421.61 399.579 1422.26 397.463C1423.07 395.347 1424.05 393.557 1425.19 392.092C1426.33 390.627 1427.55 389.162 1428.85 387.697C1430.15 386.07 1431.29 383.71 1432.27 380.617C1432.6 379.315 1432.76 378.094 1432.76 376.955C1432.76 375.653 1432.76 374.432 1432.76 373.293C1432.76 371.991 1432.92 370.77 1433.25 369.631C1433.57 368.329 1434.22 367.108 1435.2 365.969C1435.36 363.853 1436.18 362.225 1437.64 361.086C1439.11 359.947 1440.65 358.97 1442.28 358.156C1443.91 357.342 1445.45 356.529 1446.92 355.715C1448.38 354.738 1449.28 353.355 1449.6 351.564C1450.74 347.984 1451.15 344.077 1450.82 339.846C1450.66 335.614 1450.58 331.626 1450.58 327.883C1450.58 325.279 1450.74 323 1451.07 321.047C1451.39 318.931 1451.8 316.978 1452.29 315.188C1452.94 313.397 1453.59 311.607 1454.24 309.816C1454.89 307.863 1455.54 305.747 1456.2 303.469C1456.85 300.051 1457.17 297.609 1457.17 296.145C1457.33 294.68 1457.5 293.459 1457.66 292.482C1457.82 291.343 1458.23 289.96 1458.88 288.332C1459.53 286.704 1460.83 284.1 1462.79 280.52C1463.44 279.055 1463.85 278.16 1464.01 277.834C1464.33 277.346 1464.58 277.02 1464.74 276.857C1464.9 276.532 1465.15 276.288 1465.47 276.125C1465.8 275.962 1466.53 275.393 1467.67 274.416C1468.32 273.765 1468.89 272.788 1469.38 271.486C1469.87 270.184 1470.36 268.882 1470.84 267.58C1471.33 266.115 1471.9 264.732 1472.55 263.43C1473.37 261.965 1474.42 260.826 1475.73 260.012C1474.75 257.57 1474.26 255.048 1474.26 252.443C1474.26 248.374 1475.24 244.631 1477.19 241.213C1479.14 237.795 1480.77 234.214 1482.07 230.471C1480.12 225.588 1479.14 220.461 1479.14 215.09C1479.14 210.37 1479.71 206.382 1480.85 203.127C1481.99 199.709 1483.38 196.617 1485 193.85C1486.63 191.083 1488.34 188.316 1490.13 185.549C1491.92 182.782 1493.47 179.608 1494.77 176.027C1495.75 173.098 1496.32 170.087 1496.48 166.994C1496.8 163.902 1497.05 160.891 1497.21 157.961C1497.37 154.868 1497.54 151.857 1497.7 148.928C1498.02 145.835 1498.68 142.987 1499.65 140.383C1500.14 138.918 1501.36 137.86 1503.31 137.209C1505.27 136.395 1506.73 135.337 1507.71 134.035C1508.52 133.71 1509.09 133.14 1509.42 132.326C1509.91 131.35 1510.31 130.454 1510.64 129.641C1510.96 128.827 1511.37 128.094 1511.86 127.443C1512.35 126.63 1513.16 126.141 1514.3 125.979C1513.98 125.002 1513.73 124.025 1513.57 123.049C1513.57 122.072 1513.57 121.096 1513.57 120.119C1513.57 116.538 1514.22 113.283 1515.52 110.354C1516.99 107.424 1518.86 104.982 1521.14 103.029C1523.58 101.076 1526.35 99.6113 1529.44 98.6348C1532.53 97.4954 1535.79 96.9258 1539.2 96.9258C1542.62 96.9258 1545.55 97.4954 1547.99 98.6348C1550.43 99.6113 1552.71 100.832 1554.83 102.297C1557.11 103.762 1559.3 105.227 1561.42 106.691C1563.7 108.156 1566.3 109.296 1569.23 110.109C1570.21 114.016 1570.7 118.166 1570.7 122.561C1570.86 126.955 1571.35 131.268 1572.16 135.5C1572.98 138.755 1574.03 142.01 1575.34 145.266C1576.64 148.521 1577.29 151.776 1577.29 155.031C1577.29 156.984 1576.88 158.856 1576.07 160.646C1575.42 162.437 1575.09 164.227 1575.09 166.018C1575.09 168.622 1575.58 171.145 1576.56 173.586C1577.7 175.865 1578.92 178.143 1580.22 180.422C1581.68 182.538 1583.15 184.735 1584.61 187.014C1586.08 189.13 1587.3 191.327 1588.28 193.605C1588.28 196.372 1587.95 199.058 1587.3 201.662C1586.81 204.104 1586.57 206.545 1586.57 208.986C1586.57 211.916 1586.97 214.846 1587.79 217.775C1588.6 220.542 1589.5 223.309 1590.47 226.076C1591.61 228.68 1592.59 231.447 1593.4 234.377C1594.22 237.144 1594.62 239.992 1594.62 242.922C1594.62 245.038 1594.38 246.991 1593.89 248.781C1593.4 250.572 1593.16 252.443 1593.16 254.396C1593.16 256.024 1593.57 257.814 1594.38 259.768C1595.36 261.558 1596.49 263.43 1597.8 265.383C1599.1 267.173 1600.32 268.964 1601.46 270.754C1602.76 272.544 1603.82 274.253 1604.63 275.881C1605.61 277.997 1606.42 280.275 1607.07 282.717C1607.73 284.995 1608.38 287.274 1609.03 289.553C1609.84 291.669 1610.65 293.785 1611.47 295.9C1612.45 298.016 1613.83 299.888 1615.62 301.516C1617.25 300.539 1618.71 298.586 1620.01 295.656C1621.48 292.727 1622.78 289.309 1623.92 285.402C1625.22 281.496 1626.36 277.427 1627.34 273.195C1628.48 268.801 1629.54 264.732 1630.51 260.988C1631.65 257.082 1632.71 253.745 1633.69 250.979C1634.66 248.212 1635.64 246.421 1636.62 245.607C1636.62 244.794 1636.53 244.143 1636.37 243.654C1636.21 243.003 1636.13 242.434 1636.13 241.945C1636.13 238.202 1637.02 234.702 1638.81 231.447C1640.77 228.029 1642.23 224.53 1643.21 220.949C1644.51 216.717 1645.24 212.486 1645.4 208.254C1645.73 203.859 1646.62 199.628 1648.09 195.559C1648.9 192.954 1650.21 190.757 1652 188.967C1653.79 187.014 1655.17 184.898 1656.15 182.619C1657.61 179.038 1658.83 175.051 1659.81 170.656C1660.79 166.262 1661.27 162.03 1661.27 157.961C1661.27 156.496 1660.87 155.031 1660.05 153.566C1659.4 151.939 1659.08 150.23 1659.08 148.439C1659.08 146.649 1659.81 143.964 1661.27 140.383C1662.74 136.639 1664.53 132.896 1666.64 129.152C1668.76 125.246 1670.88 121.665 1672.99 118.41C1675.27 115.155 1677.14 112.876 1678.61 111.574C1681.7 111.086 1684.71 110.679 1687.64 110.354C1690.57 109.865 1693.58 109.621 1696.67 109.621C1697.65 109.621 1698.63 109.621 1699.6 109.621C1700.58 109.621 1701.64 109.784 1702.78 110.109C1705.06 110.435 1707.01 111.33 1708.64 112.795C1710.26 114.26 1712.14 115.48 1714.25 116.457C1716.04 117.271 1718.08 117.84 1720.36 118.166C1722.63 118.492 1724.26 119.468 1725.24 121.096V124.514C1725.24 128.583 1726.05 132.326 1727.68 135.744C1729.47 138.999 1731.5 142.255 1733.78 145.51L1733.29 149.904C1732.97 154.462 1733.54 158.693 1735 162.6C1736.63 166.343 1738.34 170.331 1740.13 174.562C1741.27 177.655 1742 180.91 1742.33 184.328C1742.82 187.583 1743.06 190.92 1743.06 194.338C1743.22 197.756 1743.39 201.174 1743.55 204.592C1743.71 208.01 1744.12 211.346 1744.77 214.602C1745.58 218.996 1746.56 222.658 1747.7 225.588C1749 228.518 1749.65 232.342 1749.65 237.062C1749.65 239.178 1749.9 241.132 1750.38 242.922C1751.04 244.549 1751.61 246.177 1752.09 247.805C1752.58 249.432 1752.91 251.223 1753.07 253.176C1753.4 255.129 1753.23 257.408 1752.58 260.012C1753.23 261.965 1754.13 263.674 1755.27 265.139C1756.57 266.604 1757.87 268.068 1759.17 269.533C1760.48 270.998 1761.7 272.463 1762.84 273.928C1764.14 275.393 1765.11 277.102 1765.77 279.055C1766.58 281.333 1766.9 283.612 1766.74 285.891C1766.58 288.007 1766.74 290.041 1767.23 291.994C1768.04 294.273 1769.02 296.47 1770.16 298.586C1771.46 300.539 1772.11 302.655 1772.11 304.934V310.549C1772.11 312.99 1772.44 315.269 1773.09 317.385C1773.74 319.501 1774.47 321.617 1775.29 323.732C1776.26 325.848 1777.08 327.964 1777.73 330.08C1778.38 332.033 1778.71 334.149 1778.71 336.428C1778.71 339.032 1778.38 341.473 1777.73 343.752C1777.08 346.031 1776.75 348.472 1776.75 351.076C1776.75 354.494 1777.81 359.051 1779.93 364.748C1782.2 370.282 1784.65 376.141 1787.25 382.326C1790.02 388.348 1792.54 394.289 1794.82 400.148C1797.1 405.845 1798.24 410.646 1798.24 414.553ZM2069.23 395.021C2070.21 398.439 2070.7 401.776 2070.7 405.031C2070.7 409.1 2069.96 412.925 2068.5 416.506C2067.2 420.087 2065.81 423.749 2064.35 427.492C2062.56 428.957 2060.52 430.096 2058.25 430.91C2055.97 431.724 2053.85 432.782 2051.9 434.084C2048.48 436.037 2045.55 437.421 2043.11 438.234C2040.83 439.048 2038.55 439.536 2036.27 439.699C2033.99 439.862 2031.55 439.862 2028.95 439.699C2026.35 439.536 2023.09 439.455 2019.18 439.455C2013.16 439.455 2007.63 440.188 2002.58 441.652C1997.7 442.954 1993.14 443.605 1988.91 443.605C1984.68 443.605 1980.2 443.28 1975.48 442.629C1970.93 441.815 1966.37 441.408 1961.81 441.408C1959.04 441.408 1956.36 441.734 1953.75 442.385C1951.31 442.873 1948.79 443.768 1946.19 445.07C1943.74 445.07 1941.47 444.338 1939.35 442.873C1937.4 441.245 1935.04 440.432 1932.27 440.432C1930.8 440.432 1929.5 440.676 1928.36 441.164C1927.22 441.652 1925.84 441.896 1924.21 441.896C1921.45 441.896 1918.84 441.327 1916.4 440.188C1914.12 439.048 1911.6 438.479 1908.83 438.479C1904.76 438.479 1900.53 439.374 1896.14 441.164C1891.74 442.792 1887.27 443.605 1882.71 443.605C1880.1 443.605 1877.74 443.036 1875.63 441.896C1873.68 440.757 1871.72 439.374 1869.77 437.746C1867.98 435.956 1866.27 434.165 1864.64 432.375C1863.01 430.585 1861.22 428.957 1859.27 427.492C1858.95 425.539 1858.13 422.447 1856.83 418.215C1855.69 413.983 1854.47 409.589 1853.17 405.031C1851.87 400.474 1850.73 396.242 1849.75 392.336C1848.77 388.43 1848.29 385.826 1848.29 384.523C1848.29 382.733 1848.53 381.024 1849.02 379.396C1849.51 377.606 1849.75 375.816 1849.75 374.025C1849.75 371.747 1849.34 369.631 1848.53 367.678C1847.72 365.562 1847.31 363.365 1847.31 361.086C1847.31 360.598 1847.31 359.051 1847.31 356.447C1847.47 353.843 1847.55 351.076 1847.55 348.146C1847.72 345.054 1847.8 342.206 1847.8 339.602C1847.96 336.997 1848.12 335.451 1848.29 334.963C1847.96 332.684 1847.31 330.568 1846.33 328.615C1845.52 326.499 1844.7 324.302 1843.89 322.023C1845.52 313.072 1846.41 304.608 1846.58 296.633C1846.74 288.495 1846.82 279.787 1846.82 270.51C1846.82 269.696 1846.41 269.126 1845.6 268.801C1844.79 268.312 1843.81 267.987 1842.67 267.824C1841.69 267.661 1840.64 267.58 1839.5 267.58C1838.52 267.58 1837.79 267.58 1837.3 267.58C1836.32 267.58 1835.26 267.499 1834.12 267.336C1832.99 267.173 1832.01 266.522 1831.2 265.383C1828.27 264.569 1825.74 263.104 1823.63 260.988C1821.67 258.71 1819.56 256.512 1817.28 254.396V251.467C1817.12 248.7 1817.36 246.096 1818.01 243.654C1818.83 241.05 1819.64 238.527 1820.45 236.086C1821.43 233.482 1822.32 230.959 1823.14 228.518C1823.95 225.913 1824.52 223.228 1824.85 220.461C1826.31 219.484 1827.86 218.833 1829.49 218.508C1831.11 218.02 1831.68 216.555 1831.2 214.113C1832.82 212.811 1834.94 212.242 1837.54 212.404C1840.31 212.404 1842.59 212.404 1844.38 212.404H1845.36C1845.84 210.614 1846.09 208.905 1846.09 207.277C1846.25 205.487 1846.33 203.697 1846.33 201.906C1846.33 193.443 1845.52 185.061 1843.89 176.76C1842.43 168.459 1841.69 160.077 1841.69 151.613C1841.69 149.172 1842.1 145.754 1842.91 141.359C1843.73 136.802 1844.7 132.163 1845.84 127.443C1846.98 122.561 1848.2 117.922 1849.51 113.527C1850.81 108.97 1851.87 105.471 1852.68 103.029C1857.24 102.215 1861.47 100.913 1865.38 99.123C1869.44 97.3327 1873.59 96.4375 1877.83 96.4375C1880.27 96.4375 1882.79 96.6816 1885.39 97.1699C1888 97.6582 1890.44 97.9023 1892.72 97.9023C1895 97.9023 1897.03 97.6582 1898.82 97.1699C1900.61 96.6816 1902.48 96.1934 1904.44 95.7051C1906.39 95.2168 1908.59 94.7285 1911.03 94.2402C1913.47 93.752 1916.4 93.5078 1919.82 93.5078C1932.84 93.5078 1946.02 92.9382 1959.37 91.7988C1972.88 90.4967 1986.22 88.7064 1999.41 86.4277C2000.22 86.4277 2000.95 86.265 2001.61 85.9395C2002.42 85.6139 2003.31 85.4512 2004.29 85.4512C2004.78 85.4512 2005.27 85.8581 2005.76 86.6719C2006.41 87.3229 2006.9 87.8926 2007.22 88.3809C2008.2 87.8926 2009.34 87.6484 2010.64 87.6484C2012.1 87.4857 2013.49 87.4043 2014.79 87.4043C2019.51 87.4043 2024.23 88.1367 2028.95 89.6016C2033.67 90.9036 2038.31 92.043 2042.87 93.0195C2043.68 96.2747 2044.41 99.4486 2045.06 102.541C2045.88 105.633 2046.28 108.807 2046.28 112.062C2046.28 117.596 2045.47 121.747 2043.84 124.514C2042.21 127.118 2040.18 129.234 2037.74 130.861C2035.3 132.326 2032.69 133.791 2029.93 135.256C2027.16 136.558 2024.64 138.674 2022.36 141.604H2018.7C2012.67 140.952 2006.65 141.034 2000.63 141.848C1994.61 142.661 1988.5 143.068 1982.32 143.068C1979.88 143.068 1977.68 143.312 1975.73 143.801C1973.94 144.126 1972.23 144.615 1970.6 145.266C1969.13 145.917 1967.59 146.649 1965.96 147.463C1964.33 148.114 1962.46 148.765 1960.35 149.416C1957.74 148.928 1955.3 148.602 1953.02 148.439C1950.74 148.114 1948.3 147.951 1945.7 147.951C1937.23 147.951 1929.01 148.928 1921.04 150.881C1913.06 152.834 1905.01 154.055 1896.87 154.543C1895.4 156.496 1894.67 158.612 1894.67 160.891C1894.67 163.983 1895.16 166.994 1896.14 169.924C1897.28 172.691 1898.01 175.539 1898.33 178.469C1898.5 181.398 1898.5 184.491 1898.33 187.746C1898.33 190.839 1898.33 193.931 1898.33 197.023C1898.5 200.116 1898.82 203.127 1899.31 206.057C1899.96 208.986 1901.1 211.672 1902.73 214.113C1903.71 214.439 1904.76 214.683 1905.9 214.846C1907.2 215.008 1908.51 215.09 1909.81 215.09C1913.88 215.09 1917.95 214.683 1922.02 213.869C1926.25 212.893 1930.32 212.404 1934.22 212.404C1940.73 212.404 1947.08 213.299 1953.27 215.09C1959.61 216.717 1966.12 217.531 1972.8 217.531C1974.26 217.531 1975.73 217.206 1977.19 216.555C1978.82 215.904 1980.53 215.578 1982.32 215.578C1983.13 215.578 1983.95 215.904 1984.76 216.555C1985.57 217.206 1986.71 217.531 1988.18 217.531C1990.46 217.531 1992.57 216.962 1994.53 215.822C1996.48 214.683 1998.76 214.113 2001.36 214.113C2003.48 214.113 2005.43 214.602 2007.22 215.578C2009.17 216.392 2011.05 217.45 2012.84 218.752C2014.63 219.891 2016.42 221.031 2018.21 222.17C2020 223.146 2021.87 223.716 2023.82 223.879C2023.82 227.134 2024.64 230.227 2026.26 233.156C2027.89 236.086 2028.71 239.178 2028.71 242.434C2028.71 245.038 2027.73 247.805 2025.78 250.734C2023.82 253.501 2021.46 256.105 2018.7 258.547C2015.93 260.988 2013 263.186 2009.91 265.139C2006.98 267.092 2004.45 268.394 2002.34 269.045C2001.04 269.37 1999.73 269.452 1998.43 269.289C1997.29 269.126 1996.23 269.045 1995.26 269.045C1993.14 269.045 1991.03 269.37 1988.91 270.021C1986.79 270.673 1984.68 271.405 1982.56 272.219C1980.61 273.033 1978.49 273.765 1976.21 274.416C1974.1 275.067 1971.82 275.393 1969.38 275.393C1965.8 275.393 1962.22 275.148 1958.64 274.66C1955.22 274.172 1951.64 273.928 1947.89 273.928C1945.78 273.928 1943.83 274.172 1942.04 274.66C1940.24 275.148 1938.29 275.393 1936.18 275.393C1934.39 275.393 1932.27 274.986 1929.83 274.172C1927.39 273.358 1924.95 272.463 1922.5 271.486C1920.06 270.51 1917.78 269.615 1915.67 268.801C1913.55 267.987 1911.92 267.58 1910.79 267.58C1910.13 267.58 1909.56 267.824 1909.08 268.312C1908.75 268.638 1908.34 269.045 1907.86 269.533C1907.53 269.859 1907.04 270.184 1906.39 270.51C1905.9 270.835 1905.17 270.835 1904.19 270.51C1903.38 271.975 1902.81 273.521 1902.48 275.148C1902.32 276.613 1902.24 278.078 1902.24 279.543C1902.24 282.798 1902.57 285.972 1903.22 289.064C1903.87 291.994 1904.19 295.005 1904.19 298.098C1904.19 300.376 1903.87 302.736 1903.22 305.178C1902.57 307.456 1902.24 309.735 1902.24 312.014C1902.24 314.13 1902.57 317.141 1903.22 321.047C1903.87 324.79 1904.6 328.778 1905.41 333.01C1906.39 337.242 1907.2 341.555 1907.86 345.949C1908.51 350.181 1908.83 353.843 1908.83 356.936C1908.83 361.981 1908.59 367.027 1908.1 372.072C1907.61 376.955 1907.37 381.919 1907.37 386.965C1911.92 388.267 1916.4 389.081 1920.79 389.406C1925.19 389.732 1929.67 389.895 1934.22 389.895C1944.96 389.895 1955.79 389.243 1966.69 387.941C1977.6 386.639 1988.5 385.826 1999.41 385.5C2002.83 385.5 2006.16 385.581 2009.42 385.744C2012.84 385.907 2016.25 385.988 2019.67 385.988C2023.74 385.988 2027.57 385.093 2031.15 383.303C2034.73 381.512 2038.31 380.617 2041.89 380.617C2048.07 380.617 2052.55 383.384 2055.32 388.918L2057.27 388.43C2058.73 388.267 2059.96 388.43 2060.93 388.918C2061.91 389.406 2062.8 389.976 2063.62 390.627C2064.59 391.278 2065.49 392.01 2066.3 392.824C2067.12 393.638 2068.09 394.37 2069.23 395.021Z" fill="#BDBDBD"/>
</svg>
